<?xml version="1.0" encoding="utf-8"?>
<!-- Generator: Adobe Illustrator 25.4.1, SVG Export Plug-In . SVG Version: 6.00 Build 0)  -->
<svg version="1.1" id="Layer_1" xmlns="http://www.w3.org/2000/svg" xmlns:xlink="http://www.w3.org/1999/xlink" x="0px" y="0px"
	 viewBox="0 0 577 614.7" style="enable-background:new 0 0 577 614.7;" xml:space="preserve">
<style type="text/css">
	.st0{fill:#3F3D56;}
	.st1{fill:#FFFFFF;}
	.st2{fill:#DC143C;}
	.st3{fill:#FFB8B8;}
	.st4{fill:#FFB6B6;}
	.st5{fill:#2F2E41;}
	.st6{fill:#E6E6E6;}
	.st7{fill:#CCCCCC;}
</style>
<path class="st0" d="M364,418.1l-9.8-59.1c-0.4-2.5,1.3-4.8,3.8-5.3l44.6-7.4c2.5-0.4,4.8,1.3,5.3,3.8l9.8,59.1
	c0.4,2.5-1.3,4.8-3.8,5.3l-44.6,7.4C366.8,422.3,364.4,420.6,364,418.1z"/>
<path class="st1" d="M364.4,399.7l-6.3-38c-0.4-2.3,1.2-4.5,3.5-4.9l38.3-6.4c2.3-0.4,4.5,1.2,4.9,3.5l8.7,52.6
	c0.4,2.3-1.2,4.5-3.5,4.9l-23.8,3.9C376,417.1,366.2,410.1,364.4,399.7z"/>
<path class="st2" d="M366.1,371.3c-0.4-2.3,1.2-4.4,3.4-4.8l26.6-4.4c2.3-0.4,4.4,1.2,4.8,3.4c0.4,2.3-1.2,4.4-3.4,4.8l-26.6,4.4
	C368.6,375.1,366.5,373.6,366.1,371.3z"/>
<path class="st2" d="M368.2,384.1c-0.4-2.3,1.2-4.4,3.4-4.8l26.6-4.4c2.3-0.4,4.4,1.2,4.8,3.4s-1.2,4.4-3.4,4.8l0,0l-26.6,4.4
	C370.8,388,368.6,386.4,368.2,384.1z"/>
<path class="st2" d="M370.4,397c-0.4-2.3,1.2-4.4,3.4-4.8l26.6-4.4c2.3-0.4,4.4,1.2,4.8,3.4s-1.2,4.4-3.4,4.8l-26.6,4.4
	C372.9,400.8,370.8,399.3,370.4,397z"/>
<path class="st3" d="M343.8,362.5c-4.4-4.9-3.9-12.5,1-16.9c0.5-0.5,1.1-0.9,1.7-1.3L331,270.2l20.6,7.9l11.9,70.8
	c3.1,5.9,0.8,13.2-5.1,16.2C353.6,367.8,347.5,366.6,343.8,362.5L343.8,362.5z"/>
<polygon class="st4" points="337,596.8 354,596.8 362,531.3 337,531.3 "/>
<path class="st5" d="M332.6,591.3l4.8,0l18.7-7.6l10,7.6h0c11.8,0,21.3,9.5,21.3,21.3v0.7l-54.7,0L332.6,591.3z"/>
<polygon class="st4" points="183.6,574.7 198.8,582.3 235.2,527.3 212.8,516.1 "/>
<path class="st5" d="M182.2,567.8l4.3,2.1l20.1,1.5l5.6,11.3l0,0c10.5,5.2,14.8,18,9.6,28.6l-0.3,0.6l-49-24.4L182.2,567.8z"/>
<path class="st5" d="M344.5,299.4l-107.9,2.8l1.9,52.6c0,0-1.9,14.1,1.9,17.8s5.6,3.8,3.8,10.3s-6.7,69.4-6.7,69.4
	s-44.3,78.3-42.4,80.2s3.8,0,1.9,4.7s-3.8,2.8-1.9,4.7c1.7,1.8,3.2,3.7,4.7,5.6h30.6c0,0,1.7-9.4,1.7-10.3s1.9-6.6,1.9-7.5
	s53.5-57.6,53.5-57.6l11.3-93.9l27.2,92c0,0,0,80.7,1.9,82.6s1.9,0.9,0.9,4.7s-4.7,2.8-1.9,5.6s3.8-1.9,2.8,2.8l-0.9,4.7l36.1,0.4
	c0,0,3.8-7.9,1.9-10.7s-1.8-2,0.5-6.7s3.2-5.5,2.3-6.5s-0.9-5.9-0.9-5.9s-13.5-184.6-13.5-187.4c-0.1-1.4,0.2-2.9,0.8-4.2v-3.8
	l-3.6-13.5L344.5,299.4z"/>
<polygon class="st5" points="288.6,115.1 342.7,224.4 332.1,357.1 263,350.8 250.6,131 "/>
<path class="st5" d="M364.5,342.5l-31.6-2.9l0-0.4l-21.2-175.6l4.7-13.2c2.3-6.4,7.8-11,14.4-12.3v0c10.4-2,20.5,4.8,22.5,15.2
	c0,0,0,0.1,0,0.1l5.7,30.6l8,103.6L364.5,342.5z"/>
<path class="st2" d="M282.3,131.3l6.4-15.2l19.7,0.3l20.6,29.1l21.6,90.8c0,0,7.8,66.3,0,69.8s-34-0.8-34-0.8L282.3,131.3z"/>
<path class="st5" d="M308.4,116.4c0,0,42.5,24.6,44.1,37.4s7.2,169.7,7.2,169.7l-15-9.7l-4.1-57.2l-18.3-117.1L308.4,116.4z"/>
<circle class="st3" cx="298.3" cy="80.3" r="29"/>
<path class="st5" d="M265.5,61.2c3.3-5,9.4-8.4,15.3-7.4c1.7-11.4,12.2-19.3,23.6-17.6c4.2,0.6,8.2,2.5,11.3,5.5
	c1.9-1.3,4.3-1.5,6.3-0.6c2,0.9,3.8,2.3,5.2,4.1c6.9,8.6,8.5,20.4,4.2,30.5c0.7-2.6-1.9-5.1-4.6-5.7c-2.7-0.6-5.5,0-8.1-0.4
	c-3.5-0.5-6.6-2.5-10-2.9c-2.9-0.4-5.8,0.4-8.7,1.1c-2.8,0.7-5.8,1.5-8.7,1.2c-2.9-0.3-6.7,10.7-6.6,18.5c0,1.5-0.3,3.4-1.7,3.7
	c-1.8,0.4-2.8-2.1-4.5-2.7c-1.6-0.5-3.3,0.4-3.8,2c-0.4,1.6-0.1,3.3,1,4.6c1,1.2,2.3,2.3,3.7,3.2l-0.7,0.6c-1.2,1.5-3.6,1.6-5.2,0.6
	c-1.6-1.1-2.9-2.6-3.8-4.3c-3.1-5.1-5.8-10.6-6.9-16.5S262.2,66.3,265.5,61.2z"/>
<path class="st6" d="M202.4,275.7l57.8-62.1c2.4-2.6,6.5-2.8,9.2-0.3l46.9,43.7c2.6,2.4,2.8,6.5,0.3,9.2l-57.8,62.1
	c-2.4,2.6-6.5,2.8-9.2,0.3l-46.9-43.7C200.1,282.4,200,278.3,202.4,275.7z"/>
<path class="st1" d="M223.5,260.3l37.2-39.9c2.3-2.4,6.1-2.6,8.6-0.3l40.3,37.5c2.4,2.3,2.6,6.1,0.3,8.6l-51.5,55.2
	c-2.3,2.4-6.1,2.6-8.6,0.3l-25-23.3C213.9,288.3,213.3,271.2,223.5,260.3z"/>
<path class="st6" d="M256.8,237.6c2.2-2.4,6-2.5,8.4-0.3l27.9,26c2.4,2.2,2.5,6,0.3,8.4c-2.2,2.4-6,2.5-8.4,0.3l-27.9-26
	C254.7,243.7,254.6,240,256.8,237.6z"/>
<path class="st6" d="M244.3,251.1c2.2-2.4,6-2.5,8.4-0.3l27.9,26c2.4,2.2,2.5,6,0.3,8.4c-2.2,2.4-6,2.5-8.4,0.3c0,0,0,0,0,0
	l-27.9-26C242.2,257.2,242,253.5,244.3,251.1z"/>
<path class="st6" d="M231.7,264.6c2.2-2.4,6-2.5,8.4-0.3l27.9,26c2.4,2.2,2.5,6,0.3,8.4c-2.2,2.4-6,2.5-8.4,0.3L232,273
	C229.6,270.7,229.5,267,231.7,264.6z"/>
<path class="st1" d="M299.7,338.5l-20,28.6l-0.9,1.1c-1.6,1.9-3.9,3.3-6.3,3.8c-0.4,0.1-0.7,0.1-1.1,0.2c-0.4,0-0.9,0.1-1.3,0.1
	c-0.3,0-0.5,0-0.8,0c-1.5-0.1-2.9-0.5-4.2-1.2l-8.5-6c-0.7-0.5-1.2-1.2-1.4-2c-0.1-0.4-0.1-0.8-0.1-1.2c0.1-0.6,0.3-1.1,0.6-1.6
	l24.6-35.3c1.1-1.6,3.2-1.9,4.8-0.8l13.7,9.6c0,0,0.1,0,0.1,0.1c0,0,0,0,0.1,0c0,0,0.1,0,0.1,0.1c0,0,0.1,0.1,0.1,0.1
	c0,0,0.1,0.1,0.1,0.1l0,0c0,0,0.1,0.1,0.1,0.1c0,0,0.1,0.1,0.1,0.1c0,0,0,0.1,0.1,0.1l0,0c0.1,0.1,0.1,0.2,0.2,0.3
	c0,0,0,0.1,0.1,0.1l0,0c0,0,0,0,0,0.1c0,0.1,0.1,0.1,0.1,0.2c0.1,0.1,0.1,0.2,0.2,0.4c0,0,0,0.1,0,0.1c0,0,0,0.1,0,0.1l0,0l0,0
	c0,0,0,0.1,0,0.1c0,0.1,0,0.1,0,0.2c0,0,0,0,0,0c0,0,0,0,0,0c0,0,0,0,0,0l0,0c0,0,0,0.1,0,0.1c0,0.1,0,0.1,0,0.2c0,0,0,0.1,0,0.1
	c0,0,0,0.1,0,0.1c0,0,0,0,0,0c0,0,0,0.1,0,0.1c0,0.1,0,0.2,0,0.3c0,0,0,0.1,0,0.1c0,0,0,0.1,0,0.1c0,0,0,0,0,0.1c0,0,0,0.1,0,0.1
	c0,0,0,0.1,0,0.1l0,0.1c0,0,0,0.1,0,0.1c0,0,0,0,0,0.1c-0.1,0.2-0.2,0.3-0.2,0.5c0,0,0,0,0,0.1C299.7,338.5,299.7,338.5,299.7,338.5
	z"/>
<circle class="st2" cx="286.1" cy="336.7" r="2.9"/>
<path class="st3" d="M253,367.7c-4.4-4.9-3.9-12.5,1-16.9c0.5-0.5,1.1-0.9,1.7-1.3l-15.6-74.1l20.6,7.9l11.9,70.8
	c3.1,5.9,0.8,13.2-5.1,16.2C262.7,373,256.6,371.9,253,367.7z"/>
<path class="st5" d="M241.5,337.7l-8.4-54.1L230,179.7l2.3-31.1c0.8-10.6,10-18.5,20.6-17.7c0,0,0.1,0,0.1,0
	c6.7,0.6,12.7,4.6,15.7,10.7l6.1,12.6l-2.2,177.2L241.5,337.7z"/>
<path class="st7" d="M505.6,613.1c0,0.9-0.7,1.6-1.5,1.6c0,0,0,0,0,0H86c-0.9,0-1.6-0.7-1.6-1.6s0.7-1.6,1.6-1.6l0,0H504
	C504.9,611.5,505.6,612.2,505.6,613.1C505.6,613.1,505.6,613.1,505.6,613.1z"/>
<path class="st1" d="M275.7,92c0.1-1.1,1-1.9,2.1-1.9c1.1,0.1,1.9,1,1.9,2.1c0,0.5-0.3,1-0.7,1.4l3.4,5.5c0.3,0.5,0.1,1.1-0.3,1.4
	c-0.5,0.3-1.1,0.1-1.4-0.3l-3.8-6.2C276.1,93.6,275.6,92.8,275.7,92z"/>
<path class="st5" d="M278.7,96L278.7,96c-0.2,0.1-0.5,0-0.7-0.2l-0.9-1.8c-0.1-0.2,0-0.5,0.2-0.7l0,0c0.2-0.1,0.5,0,0.7,0.2l0.9,1.8
	C279,95.6,278.9,95.9,278.7,96z"/>
</svg>
