<?xml version="1.0" encoding="utf-8"?>
<!-- Generator: Adobe Illustrator 25.4.1, SVG Export Plug-In . SVG Version: 6.00 Build 0)  -->
<svg version="1.1" id="Layer_1" xmlns="http://www.w3.org/2000/svg" xmlns:xlink="http://www.w3.org/1999/xlink" x="0px" y="0px"
	 viewBox="0 0 865.8 682.9" style="enable-background:new 0 0 865.8 682.9;" xml:space="preserve">
<style type="text/css">
	.st0{fill:#3F3D56;}
	.st1{fill:#FFFFFF;}
	.st2{fill:#DC143C;}
	.st3{fill:#9E616A;}
	.st4{fill:#2F2E41;}
	.st5{fill:#E4E4E4;}
	.st6{fill:#CCCCCC;}
</style>
<path class="st0" d="M522.8,460.4l28.9-33l0.3,0.3l5.3-6.1l-0.3-0.3l8.9-10.1c1.4-1.6,1.2-4-0.4-5.4c0,0,0,0,0,0L544,387
	c-1.6-1.4-4-1.2-5.4,0.4c0,0,0,0,0,0l-6.2,7.1l-0.5-0.4l-3.6,4.3l0.4,0.3l-0.8,0.9l-0.4-0.3l-3.6,4.3l0.3,0.3l-28.6,32.7
	c-1.4,1.6-1.2,4,0.4,5.4c0,0,0,0,0,0l21.5,18.8C519,462.2,521.4,462,522.8,460.4z"/>
<path class="st1" d="M496.4,440.1c-0.4-0.7-0.3-1.5,0.2-2.1l43.5-49.8c0.7-0.8,1.8-0.8,2.6-0.2l4.6,4l-0.2,0.1
	c-1,0.5-1.5,1.8-0.9,2.8c0.1,0.2,0.3,0.5,0.5,0.6l10.1,8.9c0.5,0.4,1.3,0.5,1.9,0.3c0.6-0.2,1.1-0.7,1.4-1.3l0.1-0.2l4.7,4.1
	c0.8,0.7,0.8,1.8,0.2,2.6l-41.5,47.5c-1.8,2-4.8,2.2-6.9,0.5l-19.8-17.3C496.7,440.5,496.5,440.3,496.4,440.1z"/>
<circle class="st2" cx="540.3" cy="413.3" r="7.3"/>
<path class="st1" d="M534.8,441.1l-20.1-17.6c-0.3-0.2-0.3-0.6-0.1-0.9c0.2-0.3,0.6-0.3,0.9-0.1c0,0,0,0,0,0l20.1,17.6
	c0.3,0.2,0.3,0.6,0.1,0.9C535.4,441.3,535,441.3,534.8,441.1C534.8,441.1,534.8,441.1,534.8,441.1z"/>
<path class="st1" d="M526.1,437.4l-6.6-5.8c-0.3-0.2-0.3-0.6-0.1-0.9s0.6-0.3,0.9-0.1l6.6,5.8c0.3,0.2,0.3,0.6,0.1,0.9
	S526.4,437.6,526.1,437.4z"/>
<path class="st1" d="M522.3,441.7l-6.6-5.8c-0.3-0.2-0.3-0.6-0.1-0.9s0.6-0.3,0.9-0.1l6.6,5.8c0.3,0.2,0.3,0.6,0.1,0.9
	S522.6,442,522.3,441.7z"/>
<path class="st1" d="M520.4,444l-6.6-5.8c-0.3-0.2-0.3-0.6-0.1-0.9c0.2-0.3,0.6-0.3,0.9-0.1c0,0,0,0,0,0l6.6,5.8
	c0.3,0.2,0.3,0.6,0.1,0.9C521,444.2,520.6,444.2,520.4,444L520.4,444z"/>
<path class="st1" d="M528,442.8l-14-12.3c-0.3-0.2-0.3-0.6-0.1-0.9c0.2-0.3,0.6-0.3,0.9-0.1c0,0,0,0,0,0l14,12.3
	c0.3,0.2,0.3,0.6,0.1,0.9C528.6,443,528.2,443,528,442.8L528,442.8z"/>
<path class="st1" d="M514,446.5l-2.4-2.1c-0.4-0.4-0.5-1.1-0.1-1.5c0.4-0.4,1.1-0.5,1.5-0.1l2.4,2.1c0.4,0.4,0.5,1.1,0.1,1.5
	C515.1,446.8,514.4,446.9,514,446.5L514,446.5z"/>
<path class="st3" d="M483.7,407.2c-4.6-4.6-4.6-12,0-16.6c0.5-0.5,1-0.9,1.6-1.3L466,296.5l20.7,6.5l15.4,89.8
	c3.4,5.6,1.6,12.8-4,16.2C493.5,411.9,487.5,411.1,483.7,407.2L483.7,407.2z"/>
<path class="st4" d="M439.3,159.2l12.8-9.7c0,0,11.3-0.8,13.3,19.6s14.5,98.6,14.5,98.6l19.6,90.8l-27.1,6l-21-98l-21-67.6
	L439.3,159.2z"/>
<path class="st0" d="M442.7,326.4l-41.8-53.8c-1.5-2-1.2-4.9,0.8-6.4l61.5-47.8c2-1.5,4.9-1.2,6.4,0.8l41.8,53.8
	c1.5,2,1.2,4.9-0.8,6.4l-61.5,47.8C447.1,328.8,444.2,328.4,442.7,326.4z"/>
<path class="st1" d="M443.7,321.6l-37.9-48.8c-1.4-1.8-1.1-4.3,0.7-5.7l56.2-43.7c1.8-1.4,4.3-1.1,5.7,0.7l37.9,48.8
	c1.4,1.8,1.1,4.3-0.7,5.7l-56.2,43.7C447.7,323.7,445.1,323.4,443.7,321.6z"/>
<path class="st5" d="M496.9,277.2l-19.1-24.6c-0.3-0.4-0.3-1.1,0.2-1.4c0.4-0.3,1.1-0.3,1.4,0.2c0,0,0,0,0,0l19.1,24.6
	c0.3,0.4,0.3,1.1-0.2,1.4C497.9,277.7,497.2,277.6,496.9,277.2C496.9,277.2,496.9,277.2,496.9,277.2L496.9,277.2z"/>
<path class="st5" d="M493.7,279.6L474.6,255c-0.3-0.4-0.3-1.1,0.2-1.4c0.4-0.3,1.1-0.3,1.4,0.2c0,0,0,0,0,0l19.1,24.6
	c0.3,0.4,0.3,1.1-0.2,1.4C494.7,280.1,494.1,280.1,493.7,279.6z"/>
<path class="st5" d="M479.7,268.1l-8.3-10.7c-0.3-0.4-0.3-1.1,0.2-1.4c0.4-0.3,1.1-0.3,1.4,0.2c0,0,0,0,0,0l8.3,10.7
	c0.3,0.4,0.3,1.1-0.2,1.4C480.7,268.7,480.1,268.6,479.7,268.1L479.7,268.1z"/>
<path class="st5" d="M475.4,289.1l-30.2-38.8c-0.3-0.4-0.3-1.1,0.2-1.4c0.4-0.3,1.1-0.3,1.4,0.2c0,0,0,0,0,0l30.2,38.8
	c0.3,0.4,0.3,1.1-0.2,1.4C476.4,289.6,475.8,289.5,475.4,289.1C475.5,289.1,475.4,289.1,475.4,289.1z"/>
<path class="st5" d="M472.3,291.5l-30.2-38.8c-0.3-0.4-0.3-1.1,0.2-1.4c0.4-0.3,1.1-0.3,1.4,0.2l30.2,38.8c0.3,0.4,0.3,1.1-0.2,1.4
	C473.3,292.1,472.6,292,472.3,291.5C472.3,291.5,472.3,291.5,472.3,291.5z"/>
<path class="st5" d="M465.1,297.1l-30.2-38.8c-0.3-0.4-0.3-1.1,0.2-1.4c0.4-0.3,1.1-0.3,1.4,0.2c0,0,0,0,0,0l30.2,38.8
	c0.3,0.4,0.3,1.1-0.2,1.4C466.1,297.7,465.4,297.6,465.1,297.1C465.1,297.1,465.1,297.1,465.1,297.1L465.1,297.1z"/>
<path class="st5" d="M461.9,299.6l-30.2-38.8c-0.3-0.4-0.3-1.1,0.2-1.4c0.4-0.3,1.1-0.3,1.4,0.2l30.2,38.8c0.3,0.4,0.3,1.1-0.2,1.4
	C462.9,300.1,462.3,300,461.9,299.6L461.9,299.6z"/>
<path class="st5" d="M454.7,305.2l-30.2-38.8c-0.3-0.4-0.3-1.1,0.2-1.4c0.4-0.3,1.1-0.3,1.4,0.2c0,0,0,0,0,0l30.2,38.8
	c0.3,0.4,0.3,1.1-0.2,1.4C455.7,305.7,455.1,305.6,454.7,305.2C454.7,305.2,454.7,305.2,454.7,305.2z"/>
<path class="st5" d="M451.5,307.7l-30.2-38.8c-0.3-0.4-0.3-1.1,0.2-1.4c0.4-0.3,1.1-0.3,1.4,0.2c0,0,0,0,0,0l30.2,38.8
	c0.3,0.4,0.3,1.1-0.2,1.4C452.5,308.2,451.9,308.1,451.5,307.7z"/>
<circle class="st1" cx="503.4" cy="352.5" r="0.4"/>
<path class="st4" d="M533.8,462.2h-3v-27c0-20.2-16.3-36.5-36.5-36.5s-36.5,16.3-36.5,36.5v27h-3v-27c0-21.8,17.7-39.5,39.5-39.5
	s39.5,17.7,39.5,39.5V462.2z"/>
<path class="st2" d="M578.4,437.7c-2-8.8-9.9-15.1-19-15h-136c-9.6,0-17.8,7.1-19.3,16.6c-2,14.2-2.7,28.6-2,42.9
	c0.2,5.5,0.6,11.2,1.2,17c0.4,3.8,0.8,7.7,1.4,11.6c1.3,9.7,9.6,16.9,19.3,16.9h135.1c9.1,0,17.1-6.3,19-15.2
	c1-4.4,1.8-8.9,2.5-13.3c0.9-5.6,1.4-11.3,1.7-17C583.1,467.3,581.8,452.3,578.4,437.7z"/>
<path class="st4" d="M533.8,453.7h-3v-27c0-20.2-16.3-36.5-36.5-36.5s-36.5,16.3-36.5,36.5l0,0v27h-3v-27
	c0-21.8,17.7-39.5,39.5-39.5s39.5,17.7,39.5,39.5V453.7z"/>
<path class="st4" d="M496.8,430.3l-5-8.7c-1.3-2.4-4.2-3.3-6.6-2c-1.2,0.6-2.1,1.8-2.4,3.1v10c0,1.9,1.6,3.5,3.5,3.5
	s3.5-1.6,3.5-3.5v-0.6l1,1.7c1,1.7,3.1,2.2,4.8,1.3C497.2,434.1,497.8,432,496.8,430.3z"/>
<circle class="st4" cx="457.3" cy="453.7" r="6"/>
<circle class="st4" cx="531.8" cy="454.2" r="6"/>
<path class="st0" d="M582.4,482.2c-0.3,5.7-0.8,11.4-1.7,17H403.3c-0.6-5.8-1-11.5-1.2-17H582.4z"/>
<circle class="st4" cx="371.8" cy="43.2" r="15"/>
<circle class="st4" cx="395.8" cy="77.2" r="38"/>
<polygon class="st3" points="376.2,650.6 394.1,650.6 402.6,581.7 376.2,581.7 "/>
<path class="st4" d="M370.4,638.4l28.6-1.7v12.2l27.2,18.8c3.5,2.4,4.3,7.2,1.9,10.6c-1.4,2.1-3.8,3.3-6.3,3.3h-34l-5.9-12.1
	l-2.3,12.1h-12.8L370.4,638.4z"/>
<polygon class="st3" points="270,628.1 284.3,638.7 332.3,588.5 311.1,572.7 "/>
<path class="st4" d="M272.6,614.8l23.9,15.7l-7.3,9.8l10.6,31.3c1.4,4-0.8,8.3-4.8,9.7c-2.4,0.8-5,0.4-7-1.1l-27.3-20.3l2.5-13.2
	l-9.1,8.3l-10.3-7.7L272.6,614.8z"/>
<rect x="366.8" y="269.2" class="st3" width="68" height="64"/>
<path class="st4" d="M355.4,294.8c0,0-33.9,29.3-18.3,112.9l19.1,81.9l-62.3,103.4l19.9,24.2l81-111.9l29.4-68.9l15.5-120.7
	L355.4,294.8z"/>
<polygon class="st4" points="408,456 410,487.6 403.8,622.2 374.4,617.1 368.8,521.2 "/>
<polygon class="st4" points="417.1,125.7 384.3,127 371.2,148.7 341.4,154.5 359.2,244.6 341.6,310 404.8,337.7 418.9,295.5 
	437.5,346.6 467.6,314 442.9,251 455.6,201.3 452.8,149.2 428.8,146.2 "/>
<circle class="st3" cx="398.9" cy="84.3" r="30.9"/>
<path class="st4" d="M419.9,52.9c-16.7-10.2-38.4-4.9-48.6,11.8c-3.5,5.7-5.3,12.4-5.2,19.1c15.7,4,32.3,7,49,0.9l4-9.7l2.3,9.7
	c5.1,2.1,10.2,3.9,15.4,0C437.2,71.8,430.8,59.7,419.9,52.9z"/>
<path class="st4" d="M357.8,2.5c-10.4-4.8-23.4-2.5-32,4.9c-8.6,7.5-12.7,19.6-11.1,30.9c1.7,11.5,8.7,21.4,15.2,31.1
	c6.5,9.7,12.8,20.3,12.8,31.9c0,17.5-14.1,31.6-31.6,31.6c9.8,4.2,20.1,8.6,30.8,8.1c10.7-0.5,21.9-7.4,23.7-18
	c1.3-7.6-2.5-15-5.6-22.1c-5.1-11.5-8.7-23.6-10.9-36c-1-5.9-1.7-12.1,0.2-17.8c3.2-8.6,11.6-14.2,20.8-13.7l3.5-3.2
	C375.1,19,368.2,7.3,357.8,2.5z"/>
<path class="st6" d="M860.5,682.7H1.2c-0.7,0-1.2-0.5-1.2-1.2c0-0.7,0.5-1.2,1.2-1.2h859.3c0.7,0,1.2,0.5,1.2,1.2
	C861.7,682.1,861.1,682.7,860.5,682.7z"/>
<path class="st2" d="M342.7,352.2h-29.5c-1.3,0-2.6,0.6-3.5,1.6c-3.8-0.7-7.5,1.8-8.1,5.6c-0.7,3.8,1.8,7.5,5.6,8.1
	c1.5,0.3,3,0.1,4.3-0.6l3.4,29c0.6,1.9,2.4,3.3,4.4,3.3h19.2c2,0,3.8-1.3,4.4-3.3l4.2-37.8c0.7-2.4-0.6-5-3.1-5.8
	C343.6,352.3,343.1,352.2,342.7,352.2z M308.4,365.7c-2.8,0-5-2.2-5-5s2.2-5,5-5c0.1,0,0.2,0,0.3,0c-0.2,0.8-0.2,1.6,0.1,2.4
	l2.1,6.9C310.1,365.5,309.3,365.7,308.4,365.7z"/>
<path class="st3" d="M318.1,399.2c4.6-4.6,4.6-12,0-16.6c-0.5-0.5-1-0.9-1.6-1.3l18.7-92.9l-20.7,6.6l-15,89.8
	c-3.4,5.6-1.5,12.8,4.1,16.2C308.3,403.9,314.3,403.1,318.1,399.2L318.1,399.2z"/>
<path class="st4" d="M354.2,164.2l-12.8-9.7c0,0-11.3-0.8-13.3,19.6s-14.5,98.6-14.5,98.6l-19.6,90.8l27.1,6l21-98l21-67.6
	L354.2,164.2z"/>
<circle class="st2" cx="464.8" cy="241.5" r="7.3"/>
</svg>
