<?xml version="1.0" encoding="utf-8"?>
<!-- Generator: Adobe Illustrator 25.4.1, SVG Export Plug-In . SVG Version: 6.00 Build 0)  -->
<svg version="1.1" id="Layer_1" xmlns="http://www.w3.org/2000/svg" xmlns:xlink="http://www.w3.org/1999/xlink" x="0px" y="0px"
	 viewBox="0 0 933.3 629.3" style="enable-background:new 0 0 933.3 629.3;" xml:space="preserve">
<style type="text/css">
	.st0{fill:#3F3D56;}
	.st1{fill:#FF6584;}
	.st2{fill:none;stroke:#3F3D56;stroke-width:2;stroke-miterlimit:10;}
	.st3{fill:#DC143C;}
	.st4{opacity:0.1;enable-background:new    ;}
	.st5{fill:#2F2E41;}
	.st6{fill:#FFB9B9;}
	.st7{opacity:0.2;enable-background:new    ;}
	.st8{opacity:0.2;fill:none;stroke:#000000;stroke-width:2;stroke-miterlimit:10;enable-background:new    ;}
	.st9{fill:#575A89;}
</style>
<path class="st0" d="M678,427.9c-5-11.5-12.7-21.6-28.1-30.1c-8-4.5-16.5-7.9-25.4-10c6-2.8,11.5-6.5,16.3-11
	c7.1-6.3,12.4-14.3,15.6-23.3c2.9-9.1,4.1-18.7,3.5-28.2c-1.1-16.8-4.4-33.1-13.2-44.8s-21.2-20.7-37.6-27
	c-12.6-4.8-25.5-7.8-45.5-8.9v-63.9l-40,25v39h-32v-41l-41-23v64h-87.1l28,48c8.7,0,14.5,0.8,17.5,2.3c2.8,1.2,5.1,3.3,6.5,6
	c1.3,2.5,1.9,8.4,1.9,17.5v173.2c0,9-0.6,14.8-1.9,17.4s-2,4.9-5.1,6.3s-3.2,1.3-11.8,1.3h-0.1l-35,48h87v64h41v-64h32v64h40v-64.4
	c26-1.3,44.5-4.7,59.4-10.3c19.3-7.2,34.1-17.7,44.7-31.5c10.6-13.8,14.9-34.9,15.8-51.2C684.1,456.8,682.5,438.1,678,427.9z
	 M491.5,298.7L491.5,298.7l0-1.3h28c15.7,0,68.2-5.2,69,37.6c0.9,42.8-69,41.1-69,41.1h-28v-3.3h0V298.7z M491.5,420.7h32
	c6.5,0,28.9,1,37,1.4c3.3,0.1,6.6,0.7,9.8,1.7c1.2,0.4,2.2,0.8,3.4,1.3c4.9,1.6,9.6,3.9,13.8,7c2.7,1.8,5.2,4.1,7.1,6.7
	c0.9,1.2,1.6,2.4,2.4,3.7c1.9,3.2,3.3,6.7,4.2,10.3c1,3.5,1.4,7.1,1.5,10.7c0,7.8-1.4,14.2-5,19.7c-4.8,8.1-12.7,13.8-21.6,17.8
	c-23,10.4-52.5,9.7-52.5,9.7h-32L491.5,420.7z"/>
<circle class="st1" cx="798.1" cy="464.1" r="11.7"/>
<line class="st2" x1="890.6" y1="591.7" x2="890.6" y2="458.2"/>
<circle class="st0" cx="890.6" cy="458.2" r="18.9"/>
<path class="st0" d="M853.4,533c-27.3,41.8-19.8,95-19.8,95s51.7-14.6,79-56.5s19.8-95,19.8-95S880.7,491.1,853.4,533z"/>
<path class="st3" d="M833.5,627.5c0,0-0.7-0.1-1.9-0.4c-1-0.2-2.3-0.5-4-0.9c-14.7-3.5-53.6-15.1-79.1-45.8
	C716.7,542,718,488.3,718,488.3s48.7,7.9,80.9,42.4c1.4,1.5,2.7,3,4.1,4.6c27.7,33.5,30.3,78.5,30.5,89.6
	C833.5,626.6,833.5,627.5,833.5,627.5z"/>
<path class="st2" d="M813.8,533c27.3,41.8,19.8,95,19.8,95s-51.7-14.6-79-56.5s-19.8-95-19.8-95S786.5,491.1,813.8,533z"/>
<path class="st4" d="M833.4,625c-0.7,0.9-1.4,1.6-1.9,2.2c-1.2,1.3-1.8,2-1.8,2s-0.8-1-2.1-2.9c-7.4-10.3-31.1-46.8-29.2-89
	c0.1-2.2,0.3-4.4,0.5-6.6c1.4,1.5,2.7,3,4.1,4.6C830.7,568.8,833.2,613.8,833.4,625z"/>
<path class="st3" d="M873.9,540.4c-2.2,49.9-39.2,88.8-39.2,88.8s-33.5-42-31.4-91.9s39.2-88.8,39.2-88.8S876,490.5,873.9,540.4z"/>
<line class="st2" x1="834.7" y1="627.8" x2="842.8" y2="450.5"/>
<line class="st2" x1="57.5" y1="628" x2="903.5" y2="628"/>
<circle class="st3" cx="237.2" cy="369.1" r="42.7"/>
<circle class="st3" cx="164.5" cy="469.6" r="42.7"/>
<ellipse transform="matrix(3.327795e-02 -0.9994 0.9994 3.327795e-02 -477.0202 606.7526)" class="st3" cx="75.1" cy="550" rx="42.7" ry="42.7"/>
<line class="st2" x1="75.1" y1="627.2" x2="75.1" y2="549.7"/>
<circle class="st0" cx="75.1" cy="549.7" r="11"/>
<path class="st0" d="M75.1,597.5c0,0-1.6-33.7-33.7-29.8"/>
<line class="st2" x1="237.2" y1="627.8" x2="237.2" y2="369.2"/>
<circle class="st0" cx="237.2" cy="369.1" r="11"/>
<circle class="st0" cx="203.5" cy="556.2" r="11"/>
<path class="st0" d="M237.2,425.1c0,0-1.6-33.7-33.7-29.8"/>
<path class="st0" d="M237.2,520.6c0,0-1.6-33.7-33.7-29.8"/>
<path class="st2" d="M237.2,624.8c0,0,7-65.5-33.7-68.6"/>
<circle class="st0" cx="270.9" cy="556.2" r="11"/>
<path class="st2" d="M237.2,624.8c0,0-7-65.5,33.7-68.6"/>
<circle class="st0" cx="271.5" cy="453.4" r="11"/>
<path class="st2" d="M237.9,518.5c0,0-7-62,33.7-65.1"/>
<line class="st2" x1="164.6" y1="627.4" x2="164.6" y2="469.6"/>
<circle class="st0" cx="164.6" cy="469.6" r="11"/>
<path class="st0" d="M164.6,514.2c0,0-1.6-33.7-33.7-29.8"/>
<path class="st2" d="M164.6,624.4c0,0,7-64.8-33.7-67.9"/>
<circle class="st0" cx="130.9" cy="556.5" r="11"/>
<path class="st4" d="M576,501c-23,10.4-52.5,9.7-52.5,9.7h-32v-6.1c13-3.6,31.1-5.9,51-5.9C553.7,498.6,564.9,499.4,576,501z"/>
<path class="st4" d="M614.5,518.7c0,11.1-32.2,20-72,20s-72-8.9-72-20c0-5.5,8-10.5,21-14.1v6.1h32c0,0,29.6,0.7,52.5-9.7
	C598.9,504.3,614.5,511,614.5,518.7z"/>
<rect x="521" y="394.1" class="st5" width="30.6" height="30.7"/>
<path class="st6" d="M532.4,415.8c0,0,2.5,8.9-1.9,9.5c-2.8,0.4-5.4,1.5-7.6,3.2l8.2,10.8h15.2l9.5-9.5c0,0-12.7-9.5-10.1-15.2
	S532.4,415.8,532.4,415.8z"/>
<path class="st4" d="M532.4,415.8c0,0,2.5,8.9-1.9,9.5c-2.8,0.4-5.4,1.5-7.6,3.2l8.2,10.8h15.2l9.5-9.5c0,0-12.7-9.5-10.1-15.2
	S532.4,415.8,532.4,415.8z"/>
<polygon class="st6" points="536.2,526.1 550.8,531.2 561,531.8 560.3,523 539.4,516.8 "/>
<path class="st5" d="M554.9,524.2c0,0,0,8.9,1.3,8.9s18.4-1.9,23.5,0c5.1,1.9,12.7-5.1,8.9-8.9c-3.8-3.8-10-9.5-13.9-8.2
	s-19.7,4.4-19.7,4.4L554.9,524.2z"/>
<path class="st5" d="M508.3,516c0,0-7.6,15.2-2.5,16.5c5.1,1.3,10.8-0.6,11.4-1.3c0.6-0.6,9.5-3.2,10.8-1.9c1.3,1.3,1.3-5.1,1.3-5.1
	L508.3,516z"/>
<path class="st5" d="M514.7,495.1c0,0-12,16.5-3.2,20.9c8.9,4.4,51.3,4.4,54.5,0c3.2-4.4,4.4-18.4,0-19.7S514.7,495.1,514.7,495.1z"
	/>
<path class="st7" d="M514.7,495.1c0,0-12,16.5-3.2,20.9c8.9,4.4,51.3,4.4,54.5,0c3.2-4.4,4.4-18.4,0-19.7S514.7,495.1,514.7,495.1z"
	/>
<circle class="st6" cx="537.5" cy="405.7" r="14.6"/>
<path class="st3" d="M514.7,428.5l12.7-2.5c0,0,3.2,10.1,13.3,8.2s12.7-8.2,12.7-8.2s7.6,3.2,8.2,3.2s8.9,3.2,8.9,5.1
	s-9.5,20.9-9.5,20.9l1.3,34.2l-46.9-1.3l3.2-33.6L514.7,428.5z"/>
<path class="st6" d="M507.7,445c0,0-3.8,33.6-1.3,36.1s12.7,9.5,12.7,9.5V483l-5.1-9.5l5.1-22.2L507.7,445z"/>
<path class="st6" d="M573.3,444c0,0-2.2,34.5-2.2,35.8s-5.7,5.7-7.6,5.7s-3.2-3.2-3.2-3.2l4.4-5.1l-3.2-26L573.3,444z"/>
<path class="st5" d="M567.3,492.5c0,0,28.5-15.8,29.2,0s-14.6,22.2-14.6,22.2s-39.3,11.8-40.9,7.5s-4.8-11.3-2.2-11.9s5.7-1.9,7-0.6
	s17.1-9.5,17.1-9.5L567.3,492.5z"/>
<path class="st8" d="M580.6,490.6c0,0-5.7,2.5-7.6,4.4s-10.1,5.1-10.1,5.1"/>
<path class="st3" d="M518.5,429.8l-3.8-1.3c0,0-13.9,14.6-9.5,18.4s7,5.1,8.2,6.3s7.6,1.9,7.6,1.9L518.5,429.8z"/>
<path class="st3" d="M564.8,432.9l5.7,1.3c0,0,4.4,9.5,5.7,10.8s-1.9,0.6-3.8,3.2s-3.8,7-7.6,7s-8.9-6.3-8.9-6.3L564.8,432.9z"/>
<path class="st5" d="M516,498.2c0,0-24.1-17.1-32.3-4.4s35.5,29.8,41.8,32.3s12,5.1,12,5.1s5.7-13.9,5.7-16.5c0-2.5-4.4-2.5-5.7-2.5
	s-7-1.3-8.2-3.2S516,498.2,516,498.2z"/>
<path class="st8" d="M502.6,493.8c0,0,6.3,5.1,12,6.3s7.6,4.4,7.6,4.4"/>
<path class="st9" d="M511.6,470l0.5,26.8c0,1.8,1.6,3.3,3.4,3.3l49.9-0.6c1.8,0,3.2-1.4,3.3-3.2l1.5-26.3c0.1-1.9-1.3-3.4-3.2-3.5
	c-0.1,0-0.1,0-0.2,0h-52C513.1,466.5,511.6,468.1,511.6,470C511.6,469.9,511.6,469.9,511.6,470z"/>
<path class="st5" d="M505.8,428.7c1.4-3,3.2-5.8,4.1-9c1-3.8,0.6-7.8,0.5-11.8c-0.2-3.5,0.1-7,0.9-10.4c0.8-3.4,2.6-6.5,5.1-9
	c6.6-5.9,18.8-6.4,26.9-3.9c3.2,1,6.6,2.8,7.4,6.1c0.1,0.5,0.2,1,0.3,1.5c0.7,2.4,3.1,3.9,4,6.3c1.2,3-0.6,6.3-0.9,9.6
	c-0.3,3.8,1.6,7.3,3.4,10.7c1.1,2,2.2,4.1,2.1,6.3c-0.1,1.2-0.5,2.4-1.1,3.5c-2.4,3.9-6.6,6.3-11.2,6.4c-1.5,0.1-2.9-0.2-4.2-1
	c-2-1.4-2.6-4.1-2.1-6.5s1.6-4.5,2.6-6.7c0.3-0.7,0.5-1.4,0.8-2.1c6.8-3.8,9.3-12.5,5.5-19.3c-3.8-6.8-12.5-9.3-19.3-5.5
	c-6.8,3.8-9.3,12.5-5.5,19.3c2.1,3.7,5.7,6.3,9.9,7.1c0.7,3.6,0.4,7.3-0.9,10.7c-1.2,2.8-2.7,5.4-4.5,7.8c-0.7,1.2-1.7,2.3-2.9,3.2
	c-0.8,0.5-1.6,0.8-2.4,1c-3.6,1.2-7.4,2.1-11.1,1.6s-7.4-2.8-8.7-6.3C503.5,435.1,504.4,431.7,505.8,428.7z"/>
<ellipse class="st5" cx="536.8" cy="397.5" rx="15.5" ry="8.8"/>
</svg>
