<?xml version="1.0" encoding="utf-8"?>
<!-- Generator: Adobe Illustrator 25.4.1, SVG Export Plug-In . SVG Version: 6.00 Build 0)  -->
<svg version="1.1" id="Layer_1" xmlns="http://www.w3.org/2000/svg" xmlns:xlink="http://www.w3.org/1999/xlink" x="0px" y="0px"
	 viewBox="0 0 763.1 458" style="enable-background:new 0 0 763.1 458;" xml:space="preserve">
<style type="text/css">
	.st0{fill:#CCCCCC;}
	.st1{fill:#FFB8B8;}
	.st2{fill:#2F2E41;}
	.st3{fill:#DC143C;}
	.st4{fill:#E6E6E6;}
	.st5{fill:#3F3D56;}
	.st6{fill:#FFFFFF;}
</style>
<path class="st0" d="M762.1,458h-225c-0.6,0-1-0.4-1-1s0.4-1,1-1h225c0.6,0,1,0.4,1,1S762.6,458,762.1,458z"/>
<circle class="st1" cx="640.9" cy="128.7" r="24.6"/>
<polygon class="st1" points="643.5,420.3 631.9,424.3 611.1,381.4 628.3,375.6 "/>
<path class="st2" d="M622.4,423.8l22.4-7.6l0,0l4.8,14.1l0,0l-36.5,12.4l0,0l0,0C610.5,434.9,614.7,426.4,622.4,423.8z"/>
<polygon class="st1" points="669.7,444.6 657.5,445.2 649.2,398.3 667.3,397.3 "/>
<path class="st2" d="M648.5,442.1l23.6-1.2l0,0l0.7,14.9l0,0l-38.5,1.9l0,0l0,0C634,449.5,640.3,442.5,648.5,442.1z"/>
<path class="st1" d="M596.8,288.6c4.1-3.7,4.5-10,0.8-14.2c-0.4-0.4-0.8-0.8-1.3-1.2l11.7-33.8l-18,4.6l-8.3,31.4
	c-3.2,4.6-2,10.9,2.6,14.1C588.2,292.1,593.4,291.8,596.8,288.6L596.8,288.6z"/>
<path class="st2" d="M668.5,430.4c-0.2,0-0.3,0-0.5,0l-16.6-1.8c-2.1-0.2-3.8-1.9-4-4l-12.8-114.5l-9.3,31.3l17.3,61.6
	c0.7,2.4-0.7,4.9-3.1,5.6c-0.2,0.1-0.5,0.1-0.7,0.1l-16.8,1.9c-2.2,0.2-4.3-1.2-4.9-3.3l-18.4-69.3c-0.2-0.6-0.2-1.2-0.1-1.7
	l8.3-62.2l61.7,4.9l4.5,146.7c0.1,2.5-1.9,4.6-4.4,4.6C668.6,430.4,668.6,430.4,668.5,430.4L668.5,430.4z"/>
<path class="st3" d="M647.2,289.7c-20.7,0-44.1-8-45.5-8.5l-0.4-0.1l23.3-119.7l0.4,0c9.2,0.4,34.5,0.6,34.7,0.6l0.5,0l9.7,105.6
	l1.7,15.4l-0.2,0.2C665.5,288.1,656.7,289.7,647.2,289.7z"/>
<path class="st2" d="M609.9,279.4l-14.6-5.9l7.4-89.9c0.4-4.5,2.7-8.6,6.5-11.1l7.7-5.2l0,0c-0.8-2.6,0.7-5.3,3.3-6
	c0.5-0.1,1-0.2,1.5-0.2l2.2,0.1c1.1-0.8,2.7-0.5,3.5,0.7c0.4,0.6,0.5,1.3,0.4,2l-0.5,9.5L609.9,279.4z"/>
<path class="st2" d="M602.5,263.3l-19-0.8l6.2-39.7l5.1-37.3c0.4-4.9,4.7-8.6,9.6-8.2c0.7,0.1,1.4,0.2,2,0.4l0,0
	c4.1,1.3,6.7,5.4,6.2,9.6l-5.2,40.5L602.5,263.3z"/>
<path class="st2" d="M632.7,280.8l-0.1-0.4c-0.1-0.3-8.7-27.8,5.7-60.7l7.2-35.8l6.2-22.5c0.2-0.8,0.8-1.5,1.6-1.8
	c0.9-0.3,2-0.1,2.6,0.7l0,0c4.3-1.3,8.9-0.8,12.9,1.3l8.6,4.6c4,2.1,6,6.6,5,10.9l-11.8,50.4l5.7,47.1L632.7,280.8z"/>
<path class="st1" d="M645.2,261.3c5.5,0.6,10.5-3.4,11.1-8.9c0.1-0.6,0.1-1.2,0-1.8l26.8-19.8l-9.4-4.4l-28.9,14.9
	c-5.5,0.7-9.4,5.8-8.7,11.4C636.9,257.3,640.6,260.9,645.2,261.3L645.2,261.3z"/>
<path class="st2" d="M662,252.5l-9-16.9l22.3-14.7l-10.9-39c-1.8-6.3,1.9-12.8,8.2-14.5c0.3-0.1,0.6-0.1,0.8-0.2l0,0
	c5.8-1.2,11.6,2.2,13.5,7.8l14.7,43.1c0.6,1.8,0,3.8-1.5,5L662,252.5z"/>
<path class="st2" d="M642.7,133.9c-2.9,0.4-5.2-2.6-6.2-5.4c-1-2.8-1.8-6-4.4-7.5c-3.5-2.1-8,0.4-12-0.3c-4.5-0.8-7.5-5.6-7.7-10.1
	s1.6-9,3.4-13.2l0.6,5.2c-0.2-3.6,1.6-7.1,4.5-9.1l-0.8,7.7c0.7-4.5,4.9-7.5,9.4-6.8c0,0,0,0,0,0l-0.1,4.6
	c5.2-0.6,10.5-1.2,15.7-0.8s10.5,2.1,14.5,5.6c5.9,5.2,8.1,13.6,7.4,21.5s-4,15.2-7.3,22.3c-0.8,1.8-2,3.8-4,4
	c-1.8,0.2-3.4-1.3-3.9-3c-0.4-1.7-0.4-3.5,0-5.3c0.5-2.6,1.1-5.3,0.7-8s-2.4-5.3-5-5.6s-5.4,2.7-4.1,5.1L642.7,133.9z"/>
<path class="st4" d="M321.3,403.6l-9.6-4l-6.6-47.9h-87.3l-7.1,47.7l-8.6,4.3c-1,0.5-1.4,1.7-0.9,2.7c0.3,0.7,1,1.1,1.8,1.1h117.4
	c1.1,0,2-0.9,2-2C322.6,404.6,322.1,403.9,321.3,403.6z"/>
<path class="st0" d="M476.5,358h-429c-4.7,0-8.5-3.8-8.5-8.5V289h446v60.5C485,354.2,481.2,358,476.5,358z"/>
<path class="st5" d="M485.4,317.6H38.6V58.7c0-5.7,4.6-10.2,10.2-10.2h426.3c5.7,0,10.2,4.6,10.2,10.2V317.6z"/>
<path class="st6" d="M458.8,298.8H65.3c-4.4,0-7.9-3.5-7.9-7.9V75.2c0-4.4,3.5-7.9,7.9-7.9h393.5c4.4,0,7.9,3.5,7.9,7.9v215.7
	C466.7,295.3,463.1,298.8,458.8,298.8z"/>
<path class="st0" d="M455.1,408h-381c-0.6,0-1-0.4-1-1s0.4-1,1-1h381c0.6,0,1,0.4,1,1S455.6,408,455.1,408z"/>
<path class="st5" d="M421.8,272H102.3c-0.6,0-1-0.4-1-1V117.8c0-0.6,0.4-1,1-1s1,0.4,1,1V270h318.5c0.6,0,1,0.4,1,1
	S422.3,272,421.8,272z"/>
<path class="st3" d="M170.5,261h-29.1c-1.6,0-3-1.3-3-3V218c0-1.6,1.3-3,3-3h29.1c1.6,0,3,1.3,3,3V258
	C173.5,259.7,172.2,261,170.5,261z"/>
<path class="st3" d="M223.5,261h-29.1c-1.6,0-3-1.3-3-3V180c0-1.6,1.3-3,3-3h29.1c1.6,0,3,1.3,3,3V258
	C226.5,259.7,225.2,261,223.5,261z"/>
<path class="st3" d="M276.5,261h-29.1c-1.6,0-3-1.3-3-3V218c0-1.6,1.3-3,3-3h29.1c1.6,0,3,1.3,3,3V258
	C279.5,259.7,278.2,261,276.5,261z"/>
<path class="st3" d="M329.5,261h-29.1c-1.6,0-2.9-1.2-3-2.8v-93.3c0-1.6,1.4-2.9,3-2.8h29.1c1.6,0,2.9,1.2,3,2.8v93.3
	C332.5,259.8,331.1,261,329.5,261z"/>
<path class="st3" d="M382.5,261h-29.1c-1.6,0-3-1.3-3-3V138c0-1.6,1.3-3,3-3h29.1c1.6,0,3,1.3,3,3V258
	C385.5,259.7,384.2,261,382.5,261z"/>
<circle class="st5" cx="156" cy="197" r="6"/>
<circle class="st5" cx="209" cy="158" r="6"/>
<circle class="st5" cx="262" cy="197" r="6"/>
<circle class="st5" cx="315" cy="139" r="6"/>
<circle class="st5" cx="368" cy="117" r="6"/>
<polygon class="st5" points="262.1,198.3 209,158.6 156.6,197.8 155.4,196.2 209,156.1 261.9,195.7 314.4,138.2 314.6,138.1 
	367.6,116.7 368.4,118.6 315.6,139.8 "/>
</svg>
